ModelForces
version=1
nRows=5
nColumns=94
inDegrees=yes

This file contains the forces exerted on a model during a simulation.

A force is a generalized force, meaning that it can be either a force (N) or a torque (Nm).

Units are S.I. units (second, meters, Newtons, ...)
Angles are in degrees.

endheader 
time	addbrev_l	addlong_l	addmagDist_l	addmagIsch_l	addmagMid_l	addmagProx_l	bflh_l	bfsh_l	edl_l	ehl_l	fdl_l	fhl_l	gaslat_l	gasmed_l	glmax1_l	glmax2_l	glmax3_l	glmed1_l	glmed2_l	glmed3_l	glmin1_l	glmin2_l	glmin3_l	grac_l	iliacus_l	perbrev_l	perlong_l	piri_l	psoas_l	recfem_l	sart_l	semimem_l	semiten_l	soleus_l	tfl_l	tibant_l	tibpost_l	vasint_l	vaslat_l	vasmed_l	addbrev_r	addlong_r	addmagDist_r	addmagIsch_r	addmagMid_r	addmagProx_r	bflh_r	bfsh_r	edl_r	ehl_r	fdl_r	fhl_r	gaslat_r	gasmed_r	glmax1_r	glmax2_r	glmax3_r	glmed1_r	glmed2_r	glmed3_r	glmin1_r	glmin2_r	glmin3_r	grac_r	iliacus_r	perbrev_r	perlong_r	piri_r	psoas_r	recfem_r	sart_r	semimem_r	semiten_r	soleus_r	tfl_r	tibant_r	tibpost_r	vasint_r	vaslat_r	vasmed_r	lumbar_extension	lumbar_bending	lumbar_rotation	arm_flex_l	arm_add_l	arm_rot_l	arm_flex_r	arm_add_r	arm_rot_r	elbow_flex_l	elbow_flex_r	pro_sup_l	pro_sup_r	
          6.43000000	         24.79489390	          8.78520711	          8.32554737	         10.44153723	        106.40488629	         59.31364316	          7.52415163	          4.90010249	        140.05721958	         30.19211048	          5.33742684	         12.97159294	         10.49728641	         19.39125249	         11.76104693	         18.15505910	         13.96785961	         10.66631312	          9.45274163	         12.00812968	          1.99017965	          2.48094446	          3.40011974	         18.97074566	          4.98117556	          4.81253683	         27.00678378	         13.21211535	         56.99935792	          0.01127704	          5.31020849	          5.72862511	          9.84535784	        105.07602389	         61.28311564	         83.31752049	         28.88643668	         23.41043809	         69.97330816	         19.55109224	          7.60270936	          9.86315398	          3.45987277	          2.42281847	          2.40617847	          2.86611189	          0.00571918	          4.25591826	          0.01591308	          0.00424545	          1.37450729	          4.87189330	         18.12728980	         35.41722883	          6.07787872	          7.40751727	          4.83703139	         35.10480633	         19.27647230	          5.11489791	         11.72043313	         11.05307251	          3.25898063	          2.25813285	        103.40615639	         18.33855560	        118.43401799	        116.31295005	         25.28686043	        537.42340637	          7.91089935	          0.00267497	          1.35846300	         63.51347975	        133.63779996	        186.03298806	          9.70245912	         22.97280463	         66.55813274	         32.97251411	         18.82703761	         33.66554612	         43.32963895	         16.55812172	         63.82357313	        -13.72553118	        152.29320264	        149.97344560	        -82.38840389	         24.91854282	         32.64590964	         -2.50080647	         -2.57736488	
          6.44000000	         19.43723893	          5.09489070	         42.88221729	         21.19373182	         97.47120637	         48.15036611	         11.32899480	          4.12524203	         65.21562302	         14.01032072	          4.44624964	         12.68419574	         10.93386524	         21.27831539	         12.43130437	         19.52656877	         15.23883501	         10.56147020	          9.74047707	         12.62344780	          1.79864768	          2.32681147	          3.45995211	         17.76637878	          3.08243528	          3.52392281	         33.19362086	         15.85355918	         44.91513101	          0.00737750	          3.98413709	          9.37793638	          9.77152983	        112.09571900	         12.85076393	        116.51825672	         22.71367803	         17.79044895	          0.59395991	        296.75167453	          7.40478631	         10.00855024	          4.13276801	          3.30870684	          2.69974203	          3.11853002	          1.88995695	         24.86074403	         31.25726567	         26.21556912	          1.44544466	          4.73303492	         17.32827203	         30.61758098	          6.80155733	          8.60708676	          5.92058090	         29.38979423	         17.69140377	         19.06988568	          9.29722888	          9.30264559	          4.74978873	          2.54138109	         72.62429465	         21.94891324	         88.86273556	         91.24841061	        116.09817351	        596.12084150	         23.26619051	          3.10672141	          2.22604447	         53.32254814	         94.82486437	        130.24664441	          9.57967830	         22.14554383	         64.19109866	         31.91619227	        -15.27505082	         36.46310638	         25.91962733	          7.61436471	         85.29547075	         -9.81837180	        133.61047255	         91.67783765	        -96.86299170	         28.59092690	         -1.30958191	         -2.19792732	         -2.53294331	
          6.45000000	         17.46027313	          4.43110860	         38.80016501	         19.77040729	         89.62270347	         42.80030425	         19.16120623	          3.81748048	         42.89010928	         12.73280305	          6.19082659	         10.85520798	         11.75662342	         23.53856819	         12.69593540	         20.29187708	         31.67031515	          9.87580867	          9.60316012	         12.71314704	          1.64238553	          2.13753973	          3.23484554	         18.85825429	          2.03289613	          3.21924661	         18.63094330	          0.01528573	         37.70292337	          0.00475527	          3.09632286	         13.20788422	          9.50474207	        110.41897857	          7.05407240	        123.72070973	         43.74738698	        201.59347227	       1203.04433704	        367.72488693	          7.36025639	         10.33002571	          4.18227323	          3.41747251	          2.79744625	          3.35568289	          2.62115628	         18.20010120	         22.81413353	          9.85558300	          1.56948615	          5.02570085	         11.71745897	         32.63045540	          6.92702962	          8.82916262	          6.05372235	         24.88011912	         17.60242045	         25.32303461	          7.86737974	          9.78983392	          6.44942404	          2.65554404	        119.41084358	         17.59853343	         81.18988128	        104.20866305	        181.68613987	        712.49754979	         27.62108819	          3.34884884	          2.67072153	         48.85828626	         79.10964586	        124.33030002	          9.50427134	         20.90980837	         60.70744473	         30.30125931	        -34.15491284	         46.74673887	          6.88817995	         -5.09348867	         50.17026832	         -2.90059260	         72.86738676	         31.46683533	        -64.08226573	         20.85401190	        -12.35155231	         -1.17612129	         -1.51199609	
          6.46000000	         17.52769456	          5.69239279	         34.29746720	         17.51524140	         80.51056590	         39.95738089	         26.77228640	          4.12818951	         39.57503414	         11.58994102	          5.76475697	         12.77319364	         12.93526551	         26.50364073	         12.52551354	         19.61285697	        253.09375570	          8.90544998	          9.12809728	         12.31946054	          1.57621414	          2.01154427	          2.88128753	         21.41433400	          1.81531807	          3.36642514	         26.97323072	        119.20194786	         34.20368383	          0.00534678	          2.64049793	         17.07898807	         10.34951510	        103.82053029	          3.95666940	        124.29056483	         50.91756413	        153.52327956	        927.42715994	        282.49810853	          7.61562768	         11.15767167	          3.89156065	          2.98580804	          2.84365133	          3.67280557	          2.55511332	         45.90432300	         23.97626827	         18.44494529	          1.65063755	          5.22946879	         39.34773166	         39.90689594	          6.60950577	          8.23217336	          5.51749172	         20.72387263	         24.08545710	         48.60417105	          6.90570433	         13.46541789	         11.92127211	          2.83917973	        153.86335417	         17.16738110	         66.88458023	        150.15847936	        281.98080757	        782.11342321	         43.23528747	          1.91324309	          2.84980910	         44.67634000	         73.14649728	        103.00331009	          9.44708671	         19.18955806	         55.98250736	         28.04298827	        -40.78305724	         53.97128177	          3.66980006	        -41.31486463	         32.93921532	          2.77059572	         34.22184813	         27.87038308	         -9.80674121	         16.57498866	         -8.32201462	          0.26018831	         -0.35075672	
          6.47000000	         17.97937002	          7.42137730	         29.29752459	         14.58072428	         70.09777301	         41.47924094	         20.93200027	          4.41536739	         40.57928200	         11.03358052	          4.07139601	          9.29877333	         14.92630730	         31.14813661	         17.67258813	         83.98539641	        404.88758237	          8.46168010	          8.63994385	         11.67889249	          1.73485538	          2.09218567	          2.72655116	         20.93230478	          2.19833392	          4.75950197	         18.53546468	        163.82900458	         32.75582740	          0.00103756	          2.42190616	         25.86644134	         10.85196888	         98.34647487	          2.93505627	        117.79365501	         36.19901454	        115.04044296	        705.99517196	        213.54783170	          8.24965857	         12.58580966	          3.68814136	          2.53577453	          3.09517162	          4.18588473	          2.05700640	         17.08752544	         14.16525681	          3.47688130	          1.89633465	          5.35723910	         61.84074298	          9.95026139	          6.07496061	          7.25535952	          4.88298165	         16.22846171	         25.19713856	         54.06887907	          5.85138479	         16.40827326	         13.17398304	          6.61849087	        229.40866359	          5.25614183	         61.56751516	        176.88698185	        423.41897472	        783.67110376	         67.30006137	          0.01985258	          2.89977807	         37.16824665	         72.51678558	         89.52013227	          9.64377712	         17.52720673	         51.48261606	         25.86455653	        -45.15791963	         55.70480389	         -4.29772660	        -68.34706221	         44.29226841	          2.23174229	         22.98374955	         33.92374353	         22.21774466	         19.67414650	         -3.91651006	          0.16754875	          0.31325110	
